:SAMPLES-PER-SECOND 30
:FULLY-SPECIFIED
:DEGREES
131
root  -28.7807 40.7677 -21.6661 175.819 57.2585 176.325
RightUpLeg  -2.69428 -10.0568 -1.61588
RightLeg  12.8229 -13.17 2.79871
RightFoot  -9.27844 -0.0227141 -2.23387
RightToes  0.000482159 0.542163 -0.142577
Spine  17.3966 -0.710342 4.41242
Spine1  11.1802 0.203734 -0.378774
HEad  -16.1381 -16.9661 10.1156
LeftShoulder1  8.93228 -14.1395 -44.0776
LeftArm  -15.6108 16.5454 -16.392
LeftForeArm  47.0119 -77.8137 -61.7713
LeftHand  -0.25398 0.0180481 5.50724
RightShoulder  5.9972 10.1357 37.9285
RightArm  -15.537 -17.3293 29.259
RightForeArm  71.4015 77.2989 112.212
RightHand  0.261157 -17.9229 -3.475
LeftUpLeg  -9.84528 9.72028 2.15286
LeftLeg  29.9742 8.60334 5.66333
LeftFoot  -11.6073 0.0600724 -3.98512
LeftToes  1.06247e-005 4.65855e-005 -8.18501e-006
132
root  -27.5641 40.8306 -22.1058 174.354 61.21 175.876
RightUpLeg  1.46702 -8.14941 -1.42797
RightLeg  10.2675 -11.1161 3.37118
RightFoot  -9.86433 -0.0410763 -1.98139
RightToes  0.000482159 0.542163 -0.142577
Spine  17.6751 -0.654009 5.10028
Spine1  11.2087 0.690082 -1.55022
HEad  -14.757 -15.1618 8.39555
LeftShoulder1  8.76915 -13.876 -43.9207
LeftArm  -16.4515 16.8916 -16.434
LeftForeArm  49.4101 -78.071 -64.2719
LeftHand  -0.25398 0.0180481 5.50724
RightShoulder  5.98727 10.1478 37.8203
RightArm  -15.1367 -17.3521 29.6412
RightForeArm  71.9381 77.1247 113.729
RightHand  0.356461 -18.1354 -4.26637
LeftUpLeg  -11.634 8.63672 0.77109
LeftLeg  27.3459 8.60844 5.14529
LeftFoot  -10.6462 0.0890804 -4.03189
LeftToes  1.06247e-005 4.65855e-005 -8.18501e-006
133
root  -26.3038 40.8153 -22.5093 173.122 64.7048 175.807
RightUpLeg  5.81221 -7.50225 -1.12992
RightLeg  7.86771 -8.29741 3.5961
RightFoot  -10.7054 -0.0628047 -1.71247
RightToes  0.000482159 0.542163 -0.142577
Spine  18.2124 -0.645164 5.38493
Spine1  11.0309 0.926371 -2.21787
HEad  -13.2205 -13.2484 6.93987
LeftShoulder1  8.58625 -13.6136 -43.6501
LeftArm  -17.1342 17.3483 -16.3797
LeftForeArm  51.5223 -78.2696 -66.4447
LeftHand  -0.25398 0.0180481 5.50724
RightShoulder  6.02437 10.1976 37.9277
RightArm  -14.4149 -17.2433 29.7851
RightForeArm  72.5915 77.0027 114.81
RightHand  0.359719 -18.7601 -4.12823
LeftUpLeg  -13.0316 8.69837 0.0981534
LeftLeg  23.394 6.97182 3.65694
LeftFoot  -9.84224 0.121448 -4.7904
LeftToes  1.06247e-005 4.65855e-005 -8.18501e-006
134
root  -24.9841 40.7166 -22.8937 172.519 68.258 175.786
RightUpLeg  9.24121 -7.09259 -0.867341
RightLeg  6.3155 -5.44901 3.51582
RightFoot  -11.5473 -0.0815266 -1.74816
RightToes  0.000482159 0.542163 -0.142577
Spine  18.0311 -0.425774 5.34973
Spine1  11.0947 1.2354 -2.60461
HEad  -11.7742 -11.2789 5.97926
LeftShoulder1  8.41315 -13.3632 -43.3912
LeftArm  -17.6397 17.7374 -16.0445
LeftForeArm  53.1709 -78.413 -68.2718
LeftHand  -0.25398 0.0180481 5.50724
RightShoulder  6.03982 10.1822 38.0842
RightArm  -13.4589 -16.8139 29.9732
RightForeArm  72.3733 76.9871 114.867
RightHand  0.400083 -18.6928 -4.49297
LeftUpLeg  -14.5518 10.2031 -0.326338
LeftLeg  18.4629 4.46818 1.92558
LeftFoot  -8.97735 0.15702 -5.04326
LeftToes  1.06247e-005 4.65855e-005 -8.18501e-006
135
root  -23.6204 40.5706 -23.295 172.209 71.8122 175.525
RightUpLeg  11.7574 -6.90434 -0.942117
RightLeg  5.67838 -2.60773 3.38823
RightFoot  -12.424 -0.107812 -2.4444
RightToes  0.000482159 0.542163 -0.142577
Spine  17.3021 -0.157907 5.33467
Spine1  11.4642 1.6803 -3.26017
HEad  -10.7657 -9.3462 5.48187
LeftShoulder1  8.24376 -13.1261 -43.1071
LeftArm  -18.0582 17.9569 -15.5431
LeftForeArm  54.5633 -78.5297 -70.0949
LeftHand  -0.25398 0.0180481 5.50724
RightShoulder  6.05572 10.1802 38.2019
RightArm  -12.4671 -16.3237 30.2297
RightForeArm  71.3547 76.9497 114.884
RightHand  0.577665 -17.5623 -6.48219
LeftUpLeg  -15.9965 10.3998 0.00783198
LeftLeg  12.6701 4.55928 -0.0742297
LeftFoot  -6.91653 0.237417 -5.03861
LeftToes  1.06247e-005 4.65855e-005 -8.18501e-006
136
root  -22.2194 40.3734 -23.72 171.623 74.7691 174.829
RightUpLeg  13.8611 -6.94215 -1.4753
RightLeg  5.76917 -0.0633714 3.27888
RightFoot  -13.8288 -0.158577 -3.02773
RightToes  0.000482159 0.542163 -0.142577
Spine  16.4663 -0.0099287 5.14135
Spine1  11.967 1.99054 -3.9107
HEad  -10.1186 -7.58574 5.1945
LeftShoulder1  8.06281 -12.9134 -42.6817
LeftArm  -18.3241 17.9761 -15.193
LeftForeArm  55.6594 -78.6149 -71.6752
LeftHand  -0.25398 0.0180481 5.50724
RightShoulder  6.11056 10.2897 38.2463
RightArm  -11.6582 -16.1088 30.4627
RightForeArm  69.9765 76.8732 115.102
RightHand  0.750703 -16.2573 -8.89282
LeftUpLeg  -16.9798 6.02526 2.00336
LeftLeg  6.66275 11.0807 -2.69227
LeftFoot  -4.55923 0.371408 -5.79652
LeftToes  1.06247e-005 4.65855e-005 -8.18501e-006
137
root  -20.7483 40.0972 -24.1692 170.96 76.9799 174.149
RightUpLeg  15.8301 -7.04054 -2.15662
RightLeg  6.65416 1.95502 3.06083
RightFoot  -15.5059 -0.204146 -2.74507
RightToes  0.000482159 0.542163 -0.142577
Spine  15.5142 0.0961026 4.77721
Spine1  12.5735 2.11823 -4.19686
HEad  -9.59894 -6.20931 5.06248
LeftShoulder1  7.89556 -12.7484 -42.1893
LeftArm  -18.1858 17.6535 -15.0203
LeftForeArm  55.7719 -78.6272 -72.0739
LeftHand  -0.25398 0.0180481 5.50724
RightShoulder  6.15142 10.4081 38.1659
RightArm  -11.1718 -16.2209 30.7507
RightForeArm  68.4132 76.8891 114.607
RightHand  0.804814 -15.6275 -9.98426
LeftUpLeg  -17.8221 4.35137 3.14526
LeftLeg  2.28167 16.2364 -4.58945
LeftFoot  -4.26738 0.4562 -6.98861
LeftToes  1.06247e-005 4.65855e-005 -8.18501e-006
138
root  -19.1713 39.756 -24.6741 170.44 78.5533 174.044
RightUpLeg  18.0441 -7.4444 -2.99555
RightLeg  8.48886 3.71444 2.76975
RightFoot  -16.7482 -0.209514 -2.02754
RightToes  0.000482159 0.542163 -0.142577
Spine  14.8002 0.101103 4.68192
Spine1  13.1237 2.17503 -4.43285
HEad  -9.08798 -5.4005 5.25948
LeftShoulder1  7.75669 -12.6163 -41.7574
LeftArm  -17.4565 16.912 -14.8403
LeftForeArm  54.7475 -78.5639 -71.2091
LeftHand  -0.25398 0.0180481 5.50724
RightShoulder  6.11425 10.3839 37.9826
RightArm  -10.9297 -16.6949 31.0234
RightForeArm  67.0011 76.9802 113.572
RightHand  0.782637 -15.3513 -10.0002
LeftUpLeg  -18.1706 4.88794 3.12549
LeftLeg  1.40642 18.3894 -5.29032
LeftFoot  -5.4254 0.400714 -7.04655
LeftToes  1.06247e-005 4.65855e-005 -8.18501e-006
139
root  -17.4835 39.3831 -25.2589 169.109 79.7155 173.579
RightUpLeg  20.4655 -8.52713 -4.63054
RightLeg  11.4998 6.33181 2.65918
RightFoot  -17.7434 -0.160878 -0.797239
RightToes  0.000482159 0.542163 -0.142577
Spine  14.6483 0.0249465 4.72937
Spine1  13.3129 2.23949 -4.81616
HEad  -8.35454 -5.07003 5.71962
LeftShoulder1  7.61153 -12.4561 -41.3581
LeftArm  -16.245 16.0761 -14.7629
LeftForeArm  53.8415 -78.5059 -70.468
LeftHand  -0.25398 0.0180481 5.50724
RightShoulder  6.03039 10.2548 37.7936
RightArm  -10.6503 -17.7213 30.8425
RightForeArm  66.3654 76.9772 113.438
RightHand  0.754004 -14.95 -10.0536
LeftUpLeg  -18.0473 5.36744 2.2955
LeftLeg  4.19079 18.2193 -4.47453
LeftFoot  -4.34563 0.321557 -4.988
LeftToes  1.06247e-005 4.65855e-005 -8.18501e-006
140
root  -15.7261 39.006 -25.89 164.795 80.6741 170.098
RightUpLeg  21.9632 -9.17159 -7.22461
RightLeg  16.4682 9.79118 3.33119
RightFoot  -18.3432 0.0221934 2.33935
RightToes  0.000482159 0.542163 -0.142577
Spine  14.6903 0.150442 3.92429
Spine1  13.1088 2.23133 -4.76743
HEad  -7.27654 -4.89101 6.19705
LeftShoulder1  7.46348 -12.266 -41.0171
LeftArm  -14.8977 15.5914 -15.0372
LeftForeArm  53.8675 -78.5074 -70.4785
LeftHand  -0.25398 0.0180481 5.50724
RightShoulder  5.96675 10.1614 37.6337
RightArm  -10.2049 -19.2069 30.0244
RightForeArm  66.2436 76.8786 114.172
RightHand  0.739749 -14.7592 -10.0723
LeftUpLeg  -18.3087 8.49651 -0.296788
LeftLeg  9.6436 13.6309 -2.09725
LeftFoot  0.130255 0.097743 -1.10084
LeftToes  1.06247e-005 4.65855e-005 -8.18501e-006
141
root  -13.9817 38.7096 -26.5043 156.024 81.3224 161.928
RightUpLeg  20.9305 -7.36537 -9.67528
RightLeg  24.7688 11.1773 5.34036
RightFoot  -15.5243 0.13268 7.24769
RightToes  0.000482159 0.542163 -0.142577
Spine  14.7827 0.523711 1.7575
Spine1  12.7601 2.00244 -3.88704
HEad  -5.93229 -4.58822 6.36015
LeftShoulder1  7.4049 -12.1553 -40.9797
LeftArm  -13.7531 15.3982 -15.446
LeftForeArm  53.475 -78.4701 -69.7322
LeftHand  -0.25398 0.0180481 5.50724
RightShoulder  5.93343 10.1436 37.4528
RightArm  -9.89924 -20.5251 29.1621
RightForeArm  65.3482 76.8878 113.887
RightHand  0.713644 -15.059 -9.49006
LeftUpLeg  -18.995 14.1751 -4.2004
LeftLeg  15.688 6.55424 0.736172
LeftFoot  4.12286 -0.405664 2.88493
LeftToes  1.06247e-005 4.65855e-005 -8.18501e-006
142
root  -12.3217 38.5841 -27.0679 143.861 81.7515 150.012
RightUpLeg  16.1153 -4.72375 -11.6051
RightLeg  36.757 9.59587 7.30597
RightFoot  -5.74343 -0.577486 11.0204
RightToes  0.000482159 0.542163 -0.142577
Spine  14.7523 0.923408 -0.857885
Spine1  12.6551 1.73995 -2.89483
HEad  -4.58795 -4.1124 6.03964
LeftShoulder1  7.48884 -12.2096 -41.3268
LeftArm  -12.9788 15.0562 -15.5187
LeftForeArm  51.0494 -78.2658 -66.9424
LeftHand  -0.25398 0.0180481 5.50724
RightShoulder  5.91524 10.1665 37.2537
RightArm  -10.084 -21.0516 28.9535
RightForeArm  63.1718 77.0749 111.842
RightHand  0.679796 -15.4292 -8.7887
LeftUpLeg  -19.0082 16.1308 -6.43076
LeftLeg  20.867 5.06781 2.68047
LeftFoot  3.49257 -0.671659 5.01871
LeftToes  1.06247e-005 4.65855e-005 -8.18501e-006
143
root  -10.8049 38.5689 -27.5846 128.139 82.1681 134.047
RightUpLeg  8.04693 -2.24274 -13.0362
RightLeg  49.5513 5.7329 6.75867
RightFoot  7.52794 -1.78226 11.1959
RightToes  0.000482159 0.542163 -0.142577
Spine  14.3639 1.24434 -2.97034
Spine1  13.013 1.73839 -2.86915
HEad  -3.41832 -3.48048 5.27006
LeftShoulder1  7.616 -12.3558 -41.6666
LeftArm  -12.5942 14.4969 -15.3511
LeftForeArm  47.2619 -77.9094 -63.1795
LeftHand  -0.25398 0.0180481 5.50724
RightShoulder  5.92432 10.2257 37.1367
RightArm  -10.5147 -20.7046 29.2285
RightForeArm  60.6878 77.2712 109.437
RightHand  0.687598 -15.4867 -8.83332
LeftUpLeg  -18.1618 16.0555 -7.42446
LeftLeg  24.6312 7.06942 3.86052
LeftFoot  -0.788852 -0.463165 5.00363
LeftToes  1.06247e-005 4.65855e-005 -8.18501e-006
